<?xml version="1.0" standalone="no"?>
<!DOCTYPE svg PUBLIC "-//W3C//DTD SVG 20010904//EN"
 "http://www.w3.org/TR/2001/REC-SVG-20010904/DTD/svg10.dtd">
<svg version="1.0" xmlns="http://www.w3.org/2000/svg"
 width="1000.000000pt" height="1000.000000pt" viewBox="0 0 1000.000000 1000.000000"
 preserveAspectRatio="xMidYMid meet">
<metadata>
Created by potrace 1.14, written by Peter Selinger 2001-2017
</metadata>
<g transform="translate(0.000000,1000.000000) scale(0.100000,-0.100000)"
fill="#000000" stroke="none">
<path d="M2889 9476 c-2 -2 -24 -6 -49 -10 -63 -8 -95 -15 -127 -27 -16 -6
-29 -10 -30 -10 -2 1 -4 1 -5 0 -2 0 -10 -2 -18 -4 -16 -3 -137 -60 -180 -85
-51 -30 -147 -109 -198 -164 -74 -80 -182 -249 -302 -474 -14 -26 -27 -49 -30
-52 -8 -8 -40 -62 -58 -100 -9 -19 -20 -37 -23 -40 -3 -3 -19 -30 -34 -60 -16
-30 -34 -62 -41 -70 -6 -8 -29 -46 -49 -85 -21 -38 -48 -86 -60 -105 -12 -19
-33 -55 -47 -80 -14 -25 -36 -63 -48 -85 -13 -22 -30 -51 -37 -65 -8 -14 -25
-43 -38 -65 -13 -22 -29 -49 -34 -60 -6 -11 -24 -42 -40 -70 -16 -27 -40 -69
-52 -92 -12 -24 -26 -43 -31 -43 -4 0 -7 -3 -6 -7 3 -10 -260 -470 -273 -478
-5 -4 -7 -11 -4 -16 4 -5 3 -9 -2 -9 -4 0 -17 -19 -28 -43 -11 -23 -22 -44
-25 -47 -4 -3 -24 -36 -45 -75 -21 -38 -42 -71 -47 -73 -4 -2 -8 -8 -8 -14 0
-5 -24 -51 -53 -101 -30 -51 -57 -99 -60 -107 -4 -8 -16 -28 -27 -45 -11 -16
-23 -37 -27 -45 -4 -8 -35 -64 -70 -124 -35 -60 -63 -113 -63 -117 0 -5 -4 -9
-10 -9 -5 0 -10 -5 -10 -10 0 -13 -92 -174 -102 -178 -5 -2 -8 -8 -8 -13 0 -5
-34 -69 -76 -141 -42 -72 -85 -148 -96 -167 -11 -20 -62 -108 -113 -197 -51
-88 -103 -183 -115 -210 -28 -63 -60 -154 -54 -154 3 0 1 -8 -5 -17 -23 -44
-35 -274 -19 -378 15 -104 66 -247 115 -327 13 -21 23 -40 23 -43 0 -2 18 -34
40 -70 22 -36 40 -69 40 -73 0 -4 6 -14 12 -21 7 -6 13 -15 13 -19 1 -4 13
-26 28 -49 15 -24 27 -45 27 -47 0 -2 21 -40 46 -83 26 -43 56 -94 67 -113 10
-19 80 -141 155 -270 135 -234 153 -267 193 -338 12 -20 38 -66 59 -102 21
-36 47 -81 57 -100 11 -19 64 -111 119 -205 54 -93 107 -186 118 -206 90 -159
130 -228 198 -345 27 -44 48 -86 48 -92 0 -7 3 -12 8 -12 9 0 42 -58 42 -75 0
-7 4 -15 8 -17 8 -3 36 -49 85 -138 16 -30 35 -61 40 -68 11 -14 40 -67 77
-139 12 -24 26 -43 31 -43 5 0 9 -9 9 -20 0 -11 4 -20 9 -20 5 0 15 -16 22
-35 7 -19 17 -35 21 -35 4 0 8 -4 8 -9 0 -4 23 -48 51 -97 29 -49 61 -105 71
-124 11 -19 35 -60 53 -90 18 -30 44 -75 57 -100 14 -25 35 -62 47 -82 11 -21
31 -55 42 -75 45 -80 41 -82 94 30 27 56 98 202 157 325 59 122 108 227 108
232 0 6 5 10 12 10 6 0 9 3 5 6 -3 3 19 56 49 117 31 62 63 128 72 147 9 19
20 36 24 38 4 2 5 9 2 17 -3 7 -1 16 5 19 8 6 50 84 56 106 0 3 34 73 74 155
99 201 184 379 186 385 1 3 24 52 53 109 l51 105 -41 75 c-22 42 -46 85 -53
96 -31 48 -66 111 -72 128 -3 9 -9 17 -14 17 -5 0 -9 4 -9 9 0 5 -31 62 -68
128 -37 65 -71 125 -75 133 -5 8 -18 31 -30 51 -12 20 -36 61 -53 90 -17 30
-40 71 -52 92 -12 20 -30 52 -40 70 -27 46 -83 142 -109 185 -12 21 -26 46
-32 58 -5 12 -37 67 -70 123 -34 57 -61 107 -61 112 0 5 -5 9 -12 9 -6 0 -9 3
-5 6 3 3 -10 30 -29 59 -19 30 -34 57 -34 60 0 3 -12 24 -26 47 -89 141 -158
284 -173 359 -12 55 -15 157 -7 214 9 66 54 174 103 252 18 29 33 56 33 61 0
5 9 21 21 36 11 14 17 26 12 26 -4 0 -3 4 2 8 11 7 49 69 88 142 10 19 28 52
40 72 12 20 71 122 130 225 60 103 112 195 117 203 26 44 115 199 130 225 51
91 147 257 218 382 45 77 82 146 82 151 0 6 4 12 8 14 5 2 20 23 34 48 74 133
93 165 99 170 3 3 9 15 13 27 4 13 13 29 20 35 6 7 22 33 35 58 23 48 43 82
51 90 3 3 13 21 24 40 38 71 70 125 80 137 6 7 24 30 41 51 16 21 46 51 67 67
21 17 44 35 51 41 16 14 118 63 142 69 11 2 40 10 65 16 65 16 780 18 780 2 0
-6 -13 -40 -29 -75 -16 -35 -55 -121 -86 -193 -31 -71 -62 -136 -67 -142 -6
-7 -8 -13 -5 -13 4 0 -44 -110 -144 -327 -10 -24 -19 -45 -19 -47 0 -2 -16
-39 -36 -83 -20 -43 -42 -91 -49 -108 -18 -43 -53 -121 -82 -185 -14 -30 -31
-70 -39 -87 -8 -18 -22 -50 -31 -70 -139 -314 -194 -440 -196 -448 -1 -5 -4
-12 -7 -15 -3 -3 -23 -45 -45 -95 -21 -49 -54 -123 -72 -163 -18 -41 -33 -75
-33 -77 0 -2 -20 -46 -45 -99 -24 -53 -47 -107 -51 -121 -3 -14 -10 -25 -15
-25 -5 0 -9 -6 -9 -14 0 -15 -39 -108 -49 -116 -3 -3 -7 -11 -9 -19 -2 -8 -10
-30 -19 -50 -9 -20 -17 -38 -18 -41 -1 -3 -12 -27 -25 -55 -49 -109 -60 -134
-60 -144 0 -6 -4 -11 -8 -11 -5 0 -9 -6 -10 -12 0 -7 -3 -22 -7 -33 -6 -20 -2
-20 772 -19 428 0 783 -1 790 -4 8 -2 3 -20 -16 -55 -55 -102 -150 -292 -150
-300 0 -4 -7 -15 -16 -23 -8 -9 -15 -22 -15 -30 0 -8 -5 -14 -12 -14 -6 0 -9
-3 -6 -6 4 -3 -9 -32 -27 -64 -18 -33 -37 -69 -41 -82 -3 -13 -10 -25 -13 -28
-4 -3 -22 -36 -41 -75 -19 -38 -54 -106 -77 -149 -24 -44 -43 -85 -43 -92 0
-7 -3 -14 -7 -16 -5 -1 -33 -52 -64 -113 -127 -249 -143 -281 -153 -294 -6 -7
-11 -20 -12 -29 -2 -8 -8 -18 -14 -22 -7 -4 -11 -10 -11 -14 1 -7 -39 -87
-129 -261 -31 -60 -115 -222 -186 -360 -126 -246 -149 -291 -308 -597 -43 -84
-115 -223 -158 -308 -44 -85 -85 -161 -90 -168 -6 -6 -8 -12 -5 -12 3 0 -8
-26 -26 -58 -18 -32 -50 -94 -72 -137 -22 -44 -43 -82 -48 -83 -4 -2 -5 -8 -1
-13 3 -5 0 -9 -6 -9 -6 0 -9 -4 -5 -9 3 -5 0 -15 -7 -23 -7 -7 -43 -72 -79
-143 -135 -267 -282 -550 -292 -563 -7 -9 -6 -11 4 -7 8 3 28 25 46 48 18 23
43 54 55 68 13 15 37 43 53 64 17 20 39 47 50 59 11 13 36 43 55 66 19 23 44
53 55 65 11 13 29 36 40 51 11 15 27 35 36 43 9 9 50 57 91 106 79 98 84 103
173 209 33 39 62 73 65 76 3 3 17 21 31 40 15 19 37 47 50 61 35 38 83 95 105
125 10 14 25 33 32 40 8 8 41 47 74 87 33 39 77 92 98 117 123 146 169 201
200 240 19 24 40 48 46 54 5 6 43 51 82 99 40 49 78 95 85 103 14 15 15 17 98
116 33 40 75 91 92 112 37 46 88 106 102 122 6 6 26 31 47 55 20 24 44 54 55
65 10 12 30 37 45 55 14 19 35 44 45 56 17 20 70 83 103 122 8 10 31 37 50 61
19 23 40 47 45 53 6 7 53 64 105 127 52 63 99 120 105 126 5 6 26 31 47 55 20
24 45 54 56 67 11 13 35 42 54 64 18 23 43 53 55 67 13 14 26 31 31 36 4 6 30
37 58 70 27 33 58 71 69 84 11 13 36 42 55 65 19 23 51 62 70 86 19 24 40 48
45 54 14 15 120 142 159 190 17 21 40 49 51 61 11 11 32 37 46 56 15 19 35 43
45 54 49 53 124 144 124 149 0 3 8 14 18 24 18 18 52 59 167 197 37 44 74 89
84 100 9 11 39 47 66 80 78 93 89 106 100 119 6 6 28 33 50 61 22 27 47 57 55
66 8 9 29 34 47 56 51 61 96 116 120 143 11 14 69 82 127 152 l106 127 -662 1
c-364 0 -663 2 -665 4 -4 3 138 305 158 336 5 8 12 22 15 30 4 8 39 80 77 160
39 80 71 147 72 150 1 3 36 77 79 165 43 88 85 177 93 198 8 20 19 37 24 37 5
0 9 8 9 18 0 10 5 23 12 30 7 7 8 12 2 12 -5 0 -5 3 1 8 6 4 24 36 40 72 17
36 34 68 38 71 5 3 8 9 8 13 -2 12 268 569 279 576 4 3 573 5 1263 4 1125 0
1256 1 1264 15 5 9 22 38 36 64 15 26 33 58 41 70 22 34 75 128 94 167 9 19
23 41 31 49 7 8 18 27 23 43 6 15 14 28 19 28 5 0 9 5 9 12 0 6 25 54 56 107
108 183 156 268 231 401 26 47 50 87 55 88 4 2 8 8 8 14 0 6 20 43 44 83 24
39 47 82 50 93 4 12 11 22 16 22 5 0 12 10 16 23 4 12 18 39 31 60 13 21 32
53 42 70 26 47 61 109 124 220 l56 97 -3553 0 c-1954 0 -3555 -2 -3557 -4z"/>
<path d="M7091 6868 c7 -13 44 -77 83 -143 39 -66 71 -122 71 -125 0 -3 24
-45 53 -93 28 -48 52 -92 52 -97 0 -6 5 -10 10 -10 6 0 10 -4 10 -9 0 -5 48
-92 106 -193 58 -101 116 -201 129 -223 32 -57 57 -101 97 -170 20 -33 47 -80
60 -105 14 -25 48 -85 77 -133 28 -49 51 -93 51 -98 0 -5 5 -9 10 -9 6 0 10
-6 10 -14 0 -8 7 -22 16 -30 8 -9 12 -16 8 -16 -4 0 0 -8 8 -17 21 -23 92
-168 106 -213 31 -104 30 -256 -2 -345 -19 -53 -51 -122 -63 -136 -7 -8 -13
-21 -13 -27 0 -7 -5 -12 -11 -12 -5 0 -7 -4 -4 -10 3 -5 1 -10 -4 -10 -6 0
-11 -5 -11 -11 0 -6 -15 -37 -34 -68 -19 -31 -43 -72 -54 -91 -10 -19 -54 -96
-97 -170 -43 -74 -88 -153 -100 -175 -12 -22 -37 -65 -55 -95 -18 -30 -52 -89
-75 -130 -23 -41 -66 -115 -95 -165 -28 -49 -62 -108 -75 -130 -124 -220 -201
-351 -207 -353 -4 -2 -8 -12 -8 -22 0 -10 -4 -21 -9 -24 -5 -3 -44 -68 -88
-143 -43 -76 -82 -145 -88 -155 -5 -9 -17 -30 -27 -47 -175 -322 -268 -449
-383 -516 -56 -33 -158 -71 -215 -81 -24 -4 -1205 -4 -1479 -1 -154 2 -127 15
-246 -118 -77 -85 -82 -91 -205 -225 -47 -51 -93 -102 -103 -114 -10 -12 -51
-56 -90 -100 -112 -122 -127 -139 -207 -227 -41 -46 -82 -90 -90 -99 -8 -9
-51 -56 -95 -105 -44 -49 -91 -102 -105 -116 -25 -26 -55 -59 -204 -224 -44
-49 -97 -106 -117 -127 -20 -21 -52 -57 -71 -80 -20 -24 -60 -68 -90 -100 -29
-31 -60 -65 -70 -76 l-16 -20 1971 0 c1085 0 1997 4 2027 9 73 11 125 22 175
37 49 15 139 55 146 65 3 5 8 7 11 5 2 -1 36 17 74 42 121 78 250 220 325 360
13 25 26 47 29 50 6 6 163 279 169 295 2 5 15 27 28 48 14 22 36 60 50 85 15
26 33 59 42 74 9 15 45 78 80 140 35 62 68 115 73 116 4 2 8 9 8 14 0 6 25 54
55 105 30 52 55 98 55 104 0 5 4 9 9 9 5 0 12 9 16 20 8 27 88 164 97 168 5 2
8 7 8 12 0 8 177 322 265 470 18 30 44 75 57 100 49 87 70 125 78 135 6 9 29
49 84 150 6 11 13 22 16 25 6 6 25 39 53 93 11 23 23 44 26 47 6 5 20 29 72
125 12 22 25 42 28 45 3 3 15 24 26 47 11 24 24 43 28 43 5 0 5 5 2 10 -3 6
-3 10 2 10 4 0 13 10 19 23 6 12 52 93 102 180 51 88 92 161 92 164 0 2 7 11
15 20 8 8 13 19 10 24 -4 5 -1 9 4 9 6 0 11 7 11 15 0 8 5 15 10 15 6 0 10 4
10 10 0 5 21 44 46 87 25 43 50 87 55 98 5 11 18 34 29 50 11 17 27 44 35 60
9 17 24 44 34 60 11 17 38 66 61 110 24 44 48 83 54 87 6 4 8 8 4 8 -3 0 5 28
18 62 44 112 59 198 58 333 0 104 -7 189 -18 215 -3 8 -7 26 -10 40 -10 55
-80 215 -130 295 -14 22 -34 57 -45 77 -40 73 -46 83 -56 90 -5 4 -6 8 -1 8 5
0 2 8 -6 18 -9 9 -24 33 -33 52 -10 19 -22 38 -27 41 -5 3 -10 10 -10 15 0 5
-17 38 -38 74 -112 195 -196 341 -223 390 -16 30 -36 62 -43 71 -8 8 -14 19
-14 23 0 5 -15 34 -34 65 -39 65 -52 88 -161 279 l-80 142 -993 0 -993 0 12
-22z"/>
</g>
</svg>
