<?xml version="1.0" standalone="no"?>
<!DOCTYPE svg PUBLIC "-//W3C//DTD SVG 20010904//EN"
 "http://www.w3.org/TR/2001/REC-SVG-20010904/DTD/svg10.dtd">
<svg version="1.0" xmlns="http://www.w3.org/2000/svg"
 width="1000.000000pt" height="1000.000000pt" viewBox="0 0 1000.000000 1000.000000"
 preserveAspectRatio="xMidYMid meet">
<metadata>
Created by potrace 1.14, written by Peter Selinger 2001-2017
</metadata>
<g transform="translate(0.000000,1000.000000) scale(0.100000,-0.100000)"
fill="#000000" stroke="none">
<path d="M2838 9449 c-169 -22 -369 -117 -500 -238 -105 -97 -161 -177 -313
-446 -13 -22 -56 -96 -96 -165 -39 -69 -98 -170 -129 -225 -31 -55 -81 -140
-110 -190 -29 -49 -62 -106 -72 -125 -42 -73 -321 -558 -358 -620 -21 -36 -78
-135 -128 -220 -49 -85 -133 -231 -187 -325 -134 -231 -423 -733 -445 -771
-10 -16 -52 -90 -95 -164 -43 -74 -85 -148 -95 -164 -9 -17 -60 -105 -112
-196 -120 -207 -159 -300 -184 -435 -12 -67 -11 -256 2 -317 6 -32 9 -58 6
-58 -3 0 -1 -5 6 -12 7 -7 12 -21 12 -33 0 -11 14 -54 31 -95 31 -72 75 -151
349 -625 70 -121 138 -239 151 -261 44 -77 340 -589 350 -604 11 -19 283 -489
317 -550 14 -25 81 -142 150 -260 69 -118 135 -233 147 -255 12 -22 61 -107
108 -189 48 -82 87 -153 87 -158 0 -4 5 -8 10 -8 6 0 10 -4 10 -9 0 -5 23 -49
51 -98 29 -48 62 -107 75 -130 13 -23 53 -92 89 -153 36 -61 65 -113 65 -115
0 -2 14 -27 32 -55 36 -58 36 -58 84 30 13 25 33 59 43 75 10 17 29 50 43 75
56 98 183 319 223 385 23 39 45 77 48 85 4 8 17 31 28 50 12 19 80 136 151
260 72 124 145 250 163 280 18 30 42 72 54 93 55 98 174 303 183 314 6 7 -1
28 -20 60 -31 51 -69 117 -294 508 -486 842 -578 1001 -635 1098 -34 60 -63
111 -63 114 0 3 -8 17 -19 31 -126 181 -154 398 -77 589 19 45 177 329 236
423 5 8 55 95 112 194 129 224 125 217 174 301 23 39 53 90 66 115 14 25 65
113 113 195 48 83 97 168 110 190 12 22 46 81 75 130 57 98 75 129 127 220 19
33 43 76 55 95 11 19 63 109 115 200 114 197 130 220 183 276 75 79 173 133
288 160 56 13 148 16 545 16 262 1 479 -1 481 -3 3 -2 -53 -121 -124 -264 -70
-143 -210 -426 -310 -630 -674 -1366 -720 -1460 -720 -1468 0 -3 280 -5 623
-5 342 0 645 -1 674 -1 l51 -1 -489 -983 c-269 -540 -494 -989 -499 -997 -6
-8 -15 -26 -20 -40 -6 -14 -14 -32 -19 -40 -16 -28 -1195 -2392 -1259 -2525
-9 -19 14 9 134 160 65 83 124 157 131 165 22 26 747 935 778 975 17 21 35 43
40 49 6 6 44 54 85 106 41 52 83 104 92 115 9 11 94 117 188 235 95 118 184
231 200 250 93 116 449 562 470 589 14 18 30 38 35 44 15 17 523 652 570 713
35 44 435 545 515 644 16 19 51 64 80 100 60 76 81 102 152 191 104 128 118
146 227 284 61 77 122 154 135 170 14 17 109 136 213 265 103 130 202 253 218
274 17 21 40 50 53 65 55 63 106 58 -609 57 -358 -1 -656 2 -661 5 -7 4 41 95
119 225 72 121 197 332 278 469 81 138 157 266 170 285 12 19 34 54 48 77 15
24 27 44 27 47 0 2 53 92 118 201 l119 198 1259 0 1259 0 19 31 c11 17 44 74
74 126 30 52 63 110 73 128 28 48 380 656 462 797 38 66 79 138 92 160 12 22
78 138 148 258 l126 217 -3547 -1 c-1951 -1 -3577 -5 -3614 -10z"/>
<path d="M7080 6882 c0 -2 16 -31 36 -65 20 -34 45 -76 55 -94 35 -62 363
-629 464 -803 56 -96 113 -195 127 -220 14 -25 75 -130 135 -235 61 -104 123
-221 139 -260 26 -64 28 -81 29 -195 0 -107 -3 -134 -24 -190 -21 -58 -173
-329 -419 -750 -47 -80 -101 -174 -120 -210 -19 -36 -41 -72 -48 -81 -8 -8
-14 -18 -14 -21 0 -3 -29 -55 -64 -116 -36 -61 -76 -131 -89 -154 -13 -24 -33
-57 -43 -75 -25 -41 -49 -83 -276 -478 -105 -181 -208 -358 -230 -392 -54 -85
-152 -174 -231 -211 -141 -67 -79 -64 -1279 -64 -597 0 -1090 -3 -1095 -7 -7
-5 -127 -209 -265 -451 -154 -269 -555 -962 -569 -982 -10 -15 -19 -29 -19
-32 0 -5 -66 -121 -122 -214 l-20 -32 2009 3 c1104 2 2026 7 2048 11 22 4 74
19 115 32 250 82 418 224 567 479 145 249 173 297 173 301 0 2 18 33 40 69 22
36 40 68 40 71 0 2 8 17 19 32 10 15 89 151 176 302 87 151 164 285 171 297 8
13 15 26 15 30 1 5 9 19 19 33 9 14 70 117 135 230 119 207 179 311 275 475
29 50 62 108 75 130 12 22 46 81 75 130 29 50 60 104 70 120 44 79 92 161 100
175 5 8 39 67 75 130 36 63 70 122 75 130 5 8 22 38 38 65 16 28 38 66 49 85
11 19 46 80 78 135 31 55 66 115 76 133 11 17 27 47 38 65 61 107 82 144 91
157 6 8 13 22 17 30 4 8 23 42 43 75 116 194 162 358 155 555 -6 177 -54 343
-140 480 -12 19 -35 60 -52 90 -17 30 -62 109 -100 175 -83 142 -247 425 -275
475 -11 19 -37 64 -58 100 -21 36 -47 82 -59 103 -36 63 -57 99 -97 167 -40
67 -48 82 -98 172 -16 29 -36 62 -45 73 -16 20 -25 20 -1003 20 -544 0 -988
-1 -988 -3z"/>
</g>
</svg>
