<svg width="19" height="17" viewBox="0 0 19 17" xmlns="http://www.w3.org/2000/svg">
<path d="M0.255023 9.42849L3.98021 15.9057L5.7 12.3387L3.8188 9.07023C3.60985 8.70838 3.60985 8.29178 3.8188 7.92809L6.16654 3.84763C6.37565 3.48434 6.73449 3.27664 7.152 3.2768H8.41429L5.97143 8.77419H8.98972L4.88571 16.7258L13.1279 6.85087H10.5942L12.3233 3.2768H15.3526H17.1145L19 0H13.6015H10.0099H5.68025C4.99963 0.00015831 4.41546 0.3384 4.07475 0.928617L0.255023 7.56983C-0.0848884 8.16148 -0.0851269 8.83987 0.255023 9.42849ZM5.96521 17H13.3203C13.9995 17 14.585 16.6617 14.9266 16.0699L18.7464 9.42833C19.0844 8.83987 19.0844 8.16148 18.7464 7.56967L17.2189 4.91397H13.4484L15.1825 7.92809C15.3897 8.2921 15.3897 8.70862 15.1819 9.07039L12.8351 13.1518C12.6246 13.5157 12.2655 13.723 11.8476 13.723H10.1421L8.95714 13.7097L5.96521 17Z"/>
</svg>
