<svg width="1920" height="611" viewBox="0 0 1920 611" fill="none" xmlns="http://www.w3.org/2000/svg">
<path d=" M1388.6 209.058 H1562.63 L1634.74 334.025 C1634.74 334.027 1634.74 334.029 1634.74 334.031 L1634.74 334.031 M1388.6 209.058 L1469.13 348.568 L1469.14 348.578 C1479.45 366.645 1479.46 387.389 1469.1 405.358 L1469.1 405.36 L1357.2 599.347 L1357.19 599.353 C1346.71 617.416 1328.77 627.748 1307.94 627.748 H1226.62 H1226.6 L1226.59 627.748 L1171.21 627.125 L1033.11 778.5 H1378.17 C1409.66 778.5 1436.76 762.896 1452.6 735.538 L1634.74 419.875 L1634.74 419.875 M1634.74 334.031 C1650.41 361.391 1650.41 392.683 1634.74 419.875 M1634.74 334.031 M757.323 419.877 L757.326 419.881 L932.599 723.651 L1011.97 559.555 L922.933 405.356 C922.933 405.355 922.932 405.354 922.932 405.353 C912.519 387.378 912.523 366.625 922.931 348.569 L922.932 348.568 L1034.88 154.626 L1036.92 155.802 L1034.88 154.625 C1045.3 136.585 1063.24 126.237 1084.04 126.244 H1144.23 H1148.08 L1146.51 129.762 L1031.59 387.532 H1171.67 H1175.78 L1173.89 391.182 L988.632 748.955 L1363.64 301.118 H1248.17 H1244.18 L1245.93 297.526 L1328.38 127.653 L1329.06 126.244 H1330.63 H1475.08 H1557.65 L1644.67 -24.5 H1391.58 H1220.31 H1013.86 C982.296 -24.4926 955.264 -8.8916 939.465 18.3896 L757.327 334.038 C757.326 334.038 757.326 334.039 757.326 334.039 C741.562 361.39 741.555 392.678 757.323 419.877Z" stroke="#353E58" stroke-width="5"/>
</svg>
