<?xml version="1.0" standalone="no"?>
<!DOCTYPE svg PUBLIC "-//W3C//DTD SVG 1.1//EN" "http://www.w3.org/Graphics/SVG/1.1/DTD/svg11.dtd">
<svg xmlns="http://www.w3.org/2000/svg">
<defs >
<font id="Sora" horiz-adv-x="590" ><font-face
    font-family="Sora ExtraBold"
    units-per-em="1000"
    panose-1="0 0 0 0 0 0 0 0 0 0"
    ascent="970"
    descent="-290"
    alphabetic="0" />
<glyph unicode=" " horiz-adv-x="204" />
<glyph unicode="!" horiz-adv-x="324" d="M69 256V730H255V256H69ZM56 0V174H268V0H56Z" />
<glyph unicode="&quot;" horiz-adv-x="516" d="M52 408V730H218V408H52ZM298 408V730H464V408H298Z" />
<glyph unicode="#" horiz-adv-x="732" d="M110 0L223 730H363L250 0H110ZM370 0L483 730H623L510 0H370ZM32 177V295H660V177H32ZM72 435V553H700V435H72Z" />
<glyph unicode="$" horiz-adv-x="650" d="M329 -6Q227 -6 160 22T60 103T26 228H192Q192 201 207 180T252 148T329 136Q389 136 423 155T458 212Q458 243 430 262T335 288L289 292Q179 302 114 358T49 518Q49 589 80 636T170 706T312 730Q402 730 462 703T554
624T585 500H419Q419 526 406 545T370 576T312 588Q281 588 260 580T227 556T215 518Q215 491 235 469T305 441L351 437Q475 427 549 372T624 212Q624 141 590 93T490 19T329 -6ZM249 -129V17H395V-129H249ZM245 681V827H391V681H245Z" />
<glyph unicode="%" horiz-adv-x="904" d="M246 0L508 730H662L400 0H246ZM197 326Q137 326 97 352T36 424T15 524V550Q15 609 36 653T98 723T197 748Q256 748 296 723T358 654T379 550V524Q379 469 359 424T298 353T197 326ZM197 446Q223 446 235 465T247 536Q247
592 235 610T197 628Q172 628 160 610T147 537Q147 485 159 466T197 446ZM707 -20Q647 -20 607 6T546 78T525 178V204Q525 263 546 307T608 377T707 402Q766 402 806 377T868 308T889 204V178Q889 123 869 78T808 7T707 -20ZM707 100Q733 100 745 119T757 190Q757
246 745 264T707 282Q682 282 670 264T657 191Q657 139 669 120T707 100Z" />
<glyph unicode="&amp;" horiz-adv-x="745" d="M530 0L259 294Q213 344 186 382T146 456T133 535Q133 595 160 641T246 713T396 740Q434 740 471 737T537 728V580Q517 583 489 586T434 590T388 592Q333 592 316 574T299 525Q299 494 314 464T365 395L729 0H530ZM294
-22Q212 -22 151 10T55 99T20 224V237Q20 310 61 367T169 453L239 363Q218 347 202 317T186 243Q186 211 198 184T236 142T306 126Q360 126 408 154T486 246T516 415H674Q674 307 643 226T557 89T435 6T294 -22ZM429 392V522H721V392H429Z" />
<glyph unicode="&apos;" horiz-adv-x="270" d="M52 408V730H218V408H52Z" />
<glyph unicode="(" horiz-adv-x="398" d="M188 -182Q143 -121 110 -51T58 106T40 303Q40 414 59 499T114 651T194 776H394Q347 711 307 639T244 483T220 303Q220 207 237 123T292 -38T394 -182H188Z" />
<glyph unicode=")" horiz-adv-x="398" d="M210 -182Q255 -121 288 -51T340 106T358 303Q358 414 339 499T284 651T204 776H4Q51 711 91 639T154 483T178 303Q178 207 161 123T106 -38T4 -182H210Z" />
<glyph unicode="*" horiz-adv-x="571" d="M471 359L320 471V591L471 703L536 587L417 540V522L536 475L471 359ZM332 785L311 598L207 538L35 613L102 727L203 648L218 657L199 783L332 785ZM35 449L207 524L311 464L332 277L200 279L218 405L203 414L103 335L35 449Z" />
<glyph unicode="+" horiz-adv-x="598" d="M218 88V600H380V88H218ZM44 270V418H554V270H44Z" />
<glyph unicode="," horiz-adv-x="276" d="M139 -176L0 -122L110 200L264 144L139 -176Z" />
<glyph unicode="-" horiz-adv-x="510" d="M36 203V365H474V203H36Z" />
<glyph unicode="." horiz-adv-x="276" d="M40 0V198H236V0H40Z" />
<glyph unicode="/" horiz-adv-x="428" d="M16 -60L224 780H412L204 -60H16Z" />
<glyph unicode="0" horiz-adv-x="769" d="M385 -20Q296 -20 233 8T130 86T71 200T52 336V394Q52 494 88 575T198 704T385 752Q498 752 571 704T681 575T717 394V336Q717 265 698 201T640 87T537 9T385 -20ZM385 152Q459 152 495 204T531 364Q531 479 494 529T385
580Q312 580 275 530T238 366Q238 257 274 205T385 152Z" />
<glyph unicode="1" horiz-adv-x="430" d="M166 0V602L210 568H30V730H352V0H166Z" />
<glyph unicode="2" horiz-adv-x="636" d="M54 0V160Q54 208 70 244T122 309T215 361L326 408Q369 426 388 451T408 514Q408 549 385 573T316 598Q270 598 247 573T224 504H44Q44 576 75 632T166 720T316 752Q404 752 464 722T556 639T588 520V508Q588 423 542
368T394 269L283 222Q259 212 248 200T236 168V132L193 160H586V0H54Z" />
<glyph unicode="3" horiz-adv-x="638" d="M313 -20Q227 -20 163 11T65 97T30 222H210Q210 183 237 159T313 134Q346 134 369 146T404 180T416 229Q416 270 390 297T313 324Q284 324 262 315T223 292L140 430L342 554L333 570H61V730H569V571L306 411L222 442Q243
448 266 451T315 454Q401 454 464 427T561 350T596 229V217Q596 148 562 95T464 11T313 -20Z" />
<glyph unicode="4" horiz-adv-x="682" d="M28 129V318L296 752L443 659L222 299L237 277H662V129H28ZM411 0V529H583V0H411Z" />
<glyph unicode="5" horiz-adv-x="651" d="M329 -20Q241 -20 177 13T77 104T42 232H222Q222 202 236 180T275 146T331 134Q367 134 391 149T428 190T441 249Q441 282 429 308T392 349T333 364Q298 364 272 349T234 310H59L96 730H559V570H164L240 615L220 394L178
404Q208 442 250 469T368 496Q446 496 502 465T590 379T621 254V242Q621 172 587 113T488 17T329 -20Z" />
<glyph unicode="6" horiz-adv-x="696" d="M362 -22Q281 -22 222 4T124 79T67 190T48 327V367Q48 552 143 644T425 736Q462 736 501 734T574 728V572Q541 575 500 577T419 580Q342 580 299 556T238 483T220 359V273L180 271Q181 345 210 394T292 469T412 494Q489
494 545 464T633 378T664 247Q664 165 626 105T519 11T362 -22ZM356 132Q396 132 424 146T468 185T484 243Q484 277 469 301T426 340T359 354Q324 354 294 342T246 306T228 243Q228 210 243 185T286 146T356 132Z" />
<glyph unicode="7" horiz-adv-x="618" d="M143 0L381 561L368 578H28V730H602V630L341 0H143ZM28 460V730H178V460H28Z" />
<glyph unicode="8" horiz-adv-x="677" d="M338 -22Q247 -22 180 3T75 79T38 202Q38 249 52 284T93 345T157 383V397Q129 409 107 429T72 479T59 550Q59 619 95 663T194 730T338 752Q419 752 482 730T581 664T617 550Q617 509 605 479T570 429T519 397V383Q556
370 583 345T624 285T639 202Q639 129 602 79T498 4T338 -22ZM338 130Q374 130 401 140T443 172T459 226Q459 258 444 279T402 310T338 321Q303 321 276 311T233 279T218 226Q218 194 233 173T275 141T338 130ZM338 457Q385 457 411 476T437 529Q437 564 411 582T338
600Q291 600 265 582T239 529Q239 495 265 476T338 457Z" />
<glyph unicode="9" horiz-adv-x="696" d="M334 752Q415 752 474 726T572 651T629 540T648 403V363Q648 178 553 86T271 -6Q234 -6 195 -4T122 2V158Q155 155 196 153T277 150Q354 150 397 174T458 247T476 371V457L516 459Q515 385 486 336T404 261T284 236Q207
236 151 266T63 352T32 483Q32 565 70 625T177 719T334 752ZM340 598Q300 598 272 584T228 545T212 487Q212 453 227 429T270 390T337 376Q372 376 402 388T450 424T468 487Q468 520 453 545T410 584T340 598Z" />
<glyph unicode=":" horiz-adv-x="276" d="M40 0V198H236V0H40ZM40 320V518H236V320H40Z" />
<glyph unicode=";" horiz-adv-x="276" d="M139 -176L0 -122L110 200L264 144L139 -176ZM46 320V518H242V320H46Z" />
<glyph unicode="&lt;" horiz-adv-x="598" d="M530 590V436L68 298V445L530 590ZM68 362L530 224V66L68 211V362ZM198 367V285H168V367H198Z" />
<glyph unicode="=" d="M44 370V518H546V370H44ZM44 142V290H546V142H44Z" />
<glyph unicode="&gt;" horiz-adv-x="598" d="M68 66V220L530 358V211L68 66ZM530 294L68 432V590L530 445V294ZM400 289V371H430V289H400Z" />
<glyph unicode="?" horiz-adv-x="566" d="M169 254V424H270Q318 424 341 449T364 511Q364 536 355 555T326 585T280 596Q253 596 235 585T206 554T196 511H22Q22 580 53 634T143 720T286 752Q364 752 420 724T507 645T538 526V514Q538 448 507 399T416 323T272
292L351 350L349 254H169ZM157 0V174H361V0H157Z" />
<glyph unicode="@" horiz-adv-x="1129" d="M567 -247Q455 -247 360 -213T193 -114T83 43T44 251Q44 365 80 457T186 614T353 715T572 750Q676 750 767 721T927 633T1036 491T1076 295Q1076 208 1050 141T972 35T844 -4Q792 -4 753 17T693 77T672 171V223H706Q703
152 679 103T611 28T510 2Q447 2 397 31T317 115T287 243V259Q287 333 315 385T391 466T502 495Q562 495 606 469T675 395T704 282H688V475H814V183Q814 165 818 153T832 133T857 126Q885 126 902 146T929 203T938 291Q938 378 909 440T829 542T712 601T573 620Q481
620 409 595T286 523T209 407T182 251Q182 136 231 54T368 -71T567 -115Q600 -115 638 -111T707 -101V-234Q677 -240 639 -243T567 -247ZM543 132Q573 132 596 145T632 183T646 244V262Q646 294 633 317T596 352T543 365Q511 365 488 351T452 311T439 251Q439 218
451 191T486 148T543 132Z" />
<glyph unicode="A" horiz-adv-x="790" d="M8 0L242 730H540L782 0H590L402 600L455 580H323L377 600L194 0H8ZM199 169L255 321H532L588 169H199Z" />
<glyph unicode="B" horiz-adv-x="696" d="M234 -6V136H395Q436 136 456 157T476 218Q476 258 456 278T395 299H234V409H389Q466 409 527 391T623 330T658 218V204Q658 138 627 91T536 19T389 -6H234ZM74 -6V736H254V-6H74ZM234 327V437H368Q409 437 427 457T446
515Q446 553 428 573T368 594H234V736H360Q488 736 558 683T628 530V515Q628 446 593 405T497 345T360 327H234Z" />
<glyph unicode="C" horiz-adv-x="802" d="M415 -20Q316 -20 245 14T128 105T60 228T38 356V378Q38 447 60 513T129 634T246 720T410 752Q510 752 587 715T712 610T767 453H581Q574 491 551 519T492 562T410 578Q367 578 333 563T275 521T239 454T226 366Q226 317
238 278T275 211T335 169T415 154Q485 154 533 188T592 279H778Q769 197 723 129T599 21T415 -20Z" />
<glyph unicode="D" horiz-adv-x="778" d="M240 -4V170H360Q407 170 444 183T508 222T548 284T562 367Q562 415 548 451T508 512T445 549T360 562H240V736H352Q451 736 525 708T650 631T725 516T750 378V356Q750 289 725 225T650 109T526 27T352 -4H240ZM74 -4V736H260V-4H74Z"
/>
<glyph unicode="E" horiz-adv-x="592" d="M74 0V730H254V0H74ZM234 0V152H542V0H234ZM234 295V447H521V295H234ZM234 578V730H536V578H234Z" />
<glyph unicode="F" horiz-adv-x="560" d="M74 0V730H260V0H74ZM240 283V435H511V283H240ZM240 578V730H522V578H240Z" />
<glyph unicode="G" horiz-adv-x="833" d="M427 -20Q324 -20 250 14T129 105T60 227T38 356V378Q38 446 61 512T130 633T247 719T411 752Q512 752 589 715T714 613T769 461H583Q577 494 554 520T495 562T411 578Q366 578 332 563T274 519T238 451T226 366Q226 320
239 281T277 212T340 166T427 150Q489 150 534 176T597 245L583 135V294H753V144Q707 65 623 23T427 -20ZM407 258V388H813V258H407Z" />
<glyph unicode="H" horiz-adv-x="798" d="M538 0V730H724V0H538ZM74 0V730H260V0H74ZM228 287V449H570V287H228Z" />
<glyph unicode="I" horiz-adv-x="338" d="M76 0V730H262V0H76Z" />
<glyph unicode="J" horiz-adv-x="644" d="M307 -20Q220 -20 159 12T65 104T32 251V291H216V245Q216 205 239 180T306 154Q349 154 372 179T396 245V588H582V251Q582 165 550 105T456 12T307 -20ZM114 568V730H582V568H114Z" />
<glyph unicode="K" horiz-adv-x="777" d="M560 0L323 341H224L519 730H733L469 382V453L784 0H560ZM74 0V730H260V0H74Z" />
<glyph unicode="L" horiz-adv-x="562" d="M74 0V730H260V0H74ZM240 0V162H536V0H240Z" />
<glyph unicode="M" horiz-adv-x="988" d="M74 0V730H332L482 345H502L651 730H914V0H730V623L759 621L571 147H402L213 621L244 623V0H74Z" />
<glyph unicode="N" horiz-adv-x="885" d="M74 0V730H379L622 148H657L637 130V730H811V0H504L261 582H226L246 600V0H74Z" />
<glyph unicode="O" horiz-adv-x="864" d="M432 -20Q332 -20 258 14T135 105T62 228T38 356V378Q38 447 63 513T138 634T261 720T432 752Q528 752 601 720T725 634T800 514T826 378V356Q826 294 802 228T728 106T605 15T432 -20ZM432 154Q480 154 518 170T583 215T624
282T638 366Q638 414 624 453T582 520T517 563T432 578Q384 578 346 563T281 520T240 453T226 366Q226 321 240 283T281 215T346 170T432 154Z" />
<glyph unicode="P" horiz-adv-x="676" d="M240 194V354H360Q394 354 419 367T458 406T472 465Q472 500 458 525T419 563T360 576H240V736H355Q449 736 517 705T623 614T660 473V457Q660 376 623 317T518 226T355 194H240ZM74 0V736H260V0H74Z" />
<glyph unicode="Q" horiz-adv-x="864" d="M577 -220Q505 -220 452 -204T370 -145T340 -20V100H514V-24Q514 -52 529 -66T573 -80H677V-220H577ZM432 -20Q332 -20 258 14T135 105T62 228T38 356V378Q38 447 63 513T138 634T261 720T432 752Q528 752 601 720T725
634T800 514T826 378V356Q826 294 802 228T728 106T605 15T432 -20ZM432 154Q480 154 518 170T583 215T624 282T638 366Q638 414 624 453T582 520T517 563T432 578Q384 578 346 563T281 520T240 453T226 366Q226 321 240 283T281 215T346 170T432 154Z" />
<glyph unicode="R" horiz-adv-x="740" d="M74 0V736H260V0H74ZM514 0L309 310H511L728 0H514ZM213 224V367H388Q421 367 445 380T482 417T496 473Q496 506 483 530T445 567T388 580H213V736H377Q472 736 541 708T647 624T684 486V470Q684 388 647 334T541 252T377
224H213Z" />
<glyph unicode="S" horiz-adv-x="659" d="M334 -20Q232 -20 163 12T58 99T22 227H202Q202 201 216 180T260 146T334 134Q373 134 400 144T442 172T457 215Q457 247 430 264T339 287L292 291Q179 301 112 362T45 524Q45 596 78 647T173 725T317 752Q407 752 469
722T565 638T598 511H418Q418 535 406 555T372 586T317 598Q287 598 267 589T236 562T225 524Q225 496 244 476T310 452L357 448Q439 441 502 413T601 335T637 215Q637 144 601 91T497 9T334 -20Z" />
<glyph unicode="T" horiz-adv-x="626" d="M220 0V588H406V0H220ZM20 568V730H606V568H20Z" />
<glyph unicode="U" horiz-adv-x="771" d="M386 -20Q281 -20 209 19T98 129T60 299V730H246V295Q246 252 262 220T310 171T386 154Q431 154 462 171T509 219T525 295V730H711V299Q711 201 674 130T564 19T386 -20Z" />
<glyph unicode="V" horiz-adv-x="750" d="M232 0L20 730H212L371 131L336 148H432L396 131L544 730H730L532 0H232Z" />
<glyph unicode="W" horiz-adv-x="1080" d="M192 0L18 730H210L341 125L310 148H391L356 125L455 704H606L469 0H192ZM626 0L479 704H638L754 125L719 148H795L769 125L882 730H1062L909 0H626Z" />
<glyph unicode="X" horiz-adv-x="730" d="M6 0L248 388L250 372L26 730H230L355 519H381L502 730H700L477 370L474 386L724 0H520L371 241H345L204 0H6Z" />
<glyph unicode="Y" horiz-adv-x="658" d="M211 274L4 730H194L333 405L307 414H379L351 405L474 730H654L465 274H211ZM247 0V298H429V0H247Z" />
<glyph unicode="Z" horiz-adv-x="645" d="M30 0V124L386 572L391 554L357 598L380 578H44V730H617V606L260 158L255 177L289 132L266 152H613V0H30Z" />
<glyph unicode="[" horiz-adv-x="398" d="M78 -182V776H252V-182H78ZM204 -182V-30H360V-182H204ZM204 624V776H360V624H204Z" />
<glyph unicode="\" horiz-adv-x="428" d="M230 -60L12 780H198L416 -60H230Z" />
<glyph unicode="]" horiz-adv-x="398" d="M320 -182V776H146V-182H320ZM194 -182V-30H38V-182H194ZM194 624V776H38V624H194Z" />
<glyph unicode="^" horiz-adv-x="632" d="M44 311L205 743H427L588 311H434L331 613H306L202 311H44Z" />
<glyph unicode="_" horiz-adv-x="594" d="M0 -184V-48H594V-184H0Z" />
<glyph unicode="`" horiz-adv-x="300" d="M114 612L0 824H190L278 612H114Z" />
<glyph unicode="a" horiz-adv-x="600" d="M400 0V162H370V335Q370 373 353 391T295 410Q276 410 239 409T161 406T86 402V554Q110 556 143 558T211 561T277 562Q362 562 421 537T512 462T544 335V0H400ZM225 -14Q167 -14 122 7T52 67T26 162Q26 224 59 262T150
319T283 337H390V243H283Q246 243 226 225T206 175Q206 145 226 127T283 108Q307 108 325 116T356 146T370 204L412 164Q407 107 385 68T323 7T225 -14Z" />
<glyph unicode="b" horiz-adv-x="708" d="M422 -18Q354 -18 304 10T225 92T194 224H210V0H66V730H248V354L208 314Q211 395 239 452T316 538T431 568Q487 568 532 548T608 490T657 401T674 289V265Q674 204 657 153T607 63T528 3T422 -18ZM370 132Q406 132 433
150T476 202T492 277Q492 320 477 351T434 400T370 418Q337 418 309 403T262 359T244 289V255Q244 216 263 189T311 147T370 132Z" />
<glyph unicode="c" horiz-adv-x="613" d="M318 -20Q246 -20 193 3T105 67T52 158T34 264V284Q34 342 52 394T107 486T196 549T318 572Q394 572 452 542T544 460T583 339H405Q402 372 381 395T318 418Q283 418 261 400T227 350T216 274Q216 233 225 201T257 152T318
134Q346 134 365 144T395 172T409 216H587Q583 146 548 93T453 10T318 -20Z" />
<glyph unicode="d" horiz-adv-x="708" d="M293 -18Q235 -18 188 3T106 61T53 150T34 261V285Q34 345 51 396T102 486T182 546T287 568Q354 568 401 539T474 453T502 317L460 348V730H642V0H498V224H518Q516 150 488 96T411 12T293 -18ZM342 132Q375 132 402 147T447
191T464 261V295Q464 335 447 362T402 403T342 418Q306 418 278 400T233 349T216 273Q216 230 232 199T277 150T342 132Z" />
<glyph unicode="e" horiz-adv-x="628" d="M325 -20Q255 -20 201 4T110 69T54 161T34 266V286Q34 342 53 393T109 485T199 548T319 572Q408 572 470 532T565 427T598 284V226H110V324H493L430 280Q430 327 418 359T381 409T319 426Q283 426 257 410T216 360T202
275Q202 229 215 196T255 144T325 126Q363 126 387 139T422 174H588Q576 118 541 74T451 5T325 -20Z" />
<glyph unicode="f" horiz-adv-x="383" d="M78 0V550Q78 647 134 694T300 742H371V608H296Q272 608 259 595T246 558V0H78ZM16 408V540H379V408H16Z" />
<glyph unicode="g" horiz-adv-x="690" d="M287 -221Q246 -221 203 -218T124 -210V-58Q159 -62 202 -65T281 -69Q343 -69 382 -56T441 -16T460 53V165L488 225Q486 155 461 104T390 24T277 -4Q221 -4 176 16T100 72T51 159T34 268V292Q34 351 52 401T104 489T184
547T288 568Q354 568 402 539T477 453T506 317L486 310V552H630V65Q630 -37 592 -100T478 -192T287 -221ZM338 146Q371 146 397 161T440 204T456 273V297Q456 336 440 363T396 404T338 418Q302 418 275 401T232 353T216 280Q216 238 231 208T274 162T338 146Z"
/>
<glyph unicode="h" horiz-adv-x="656" d="M66 0V730H248V314H224Q224 398 245 455T306 541T407 570H415Q505 570 552 505T600 314V0H418V321Q418 359 395 383T334 408Q296 408 272 384T248 319V0H66Z" />
<glyph unicode="i" horiz-adv-x="342" d="M92 0V552H274V0H92ZM22 420V552H274V420H22ZM167 596Q117 596 94 621T70 687Q70 727 93 752T166 778Q216 778 239 753T262 687Q262 647 239 622T167 596Z" />
<glyph unicode="j" horiz-adv-x="346" d="M6 -206V-54H34Q70 -54 89 -35T108 20V552H284V22Q284 -61 257 -111T174 -183T30 -206H6ZM34 420V552H284V420H34ZM176 596Q127 596 104 621T80 687Q80 727 103 752T176 778Q226 778 249 753T272 687Q272 647 249 622T176 596Z" />
<glyph unicode="k" horiz-adv-x="661" d="M458 0L295 258H221L437 552H627L422 275V363L661 0H458ZM66 0V730H248V0H66Z" />
<glyph unicode="l" horiz-adv-x="324" d="M74 0V730H256V0H74ZM12 598V730H256V598H12Z" />
<glyph unicode="m" horiz-adv-x="988" d="M66 0V552H210V314H202Q202 400 223 456T287 541T390 570H398Q460 570 501 542T564 457T586 314H544Q544 400 565 456T629 541T732 570H740Q802 570 844 542T909 457T932 314V0H750V319Q750 357 730 382T671 408Q633 408
612 383T590 317V0H408V319Q408 357 388 382T329 408Q291 408 270 383T248 317V0H66Z" />
<glyph unicode="n" horiz-adv-x="656" d="M66 0V552H210V315H202Q202 401 224 457T289 542T395 570H403Q497 570 548 508T600 316V0H418V321Q418 359 396 383T334 408Q295 408 272 384T248 319V0H66Z" />
<glyph unicode="o" horiz-adv-x="682" d="M341 -20Q268 -20 211 2T115 63T55 153T34 262V286Q34 346 55 398T117 489T214 550T341 572Q412 572 468 550T565 489T626 398T648 286V262Q648 204 628 153T568 63T471 2T341 -20ZM341 132Q383 132 410 150T452 200T466
274Q466 317 452 349T409 401T341 420Q301 420 273 401T231 350T216 274Q216 233 230 201T272 150T341 132Z" />
<glyph unicode="p" horiz-adv-x="708" d="M66 -200V552H210V314H194Q197 395 226 452T307 538T424 568Q481 568 527 548T606 490T656 401T674 289V265Q674 204 658 153T610 63T532 3T425 -18Q361 -18 312 7T235 84T204 214L248 160V-200H66ZM370 132Q406 132 433
150T476 202T492 277Q492 320 477 351T434 400T370 418Q337 418 309 403T262 359T244 289V255Q244 216 263 189T311 147T370 132Z" />
<glyph unicode="q" horiz-adv-x="708" d="M460 -200V163L504 215Q502 145 476 93T402 11T286 -18Q228 -18 182 3T102 61T52 150T34 261V285Q34 345 52 396T105 486T187 546T293 568Q360 568 409 539T485 453T514 317H498V552H642V-200H460ZM342 132Q375 132 402
147T447 191T464 261V295Q464 335 447 362T402 403T342 418Q306 418 278 400T233 349T216 273Q216 230 232 199T277 150T342 132Z" />
<glyph unicode="r" horiz-adv-x="424" d="M66 0V552H210V312H208Q208 428 256 494T396 560H418V404H376Q315 404 282 371T248 276V0H66Z" />
<glyph unicode="s" horiz-adv-x="562" d="M285 -18Q165 -18 96 31T22 171H182Q186 146 213 128T289 110Q324 110 349 120T375 155Q375 176 355 189T282 208L244 212Q138 223 88 270T38 388Q38 449 68 488T151 548T272 568Q383 568 451 520T523 380H363Q359 405
336 422T270 440Q239 440 220 429T200 398Q200 377 218 367T278 352L316 348Q422 337 479 290T537 165Q537 108 507 67T420 4T285 -18Z" />
<glyph unicode="t" horiz-adv-x="436" d="M329 -8Q239 -8 186 14T108 87T84 225L85 696H253L252 220Q252 183 271 164T328 144H404V-8H329ZM4 420V552H404V420H4Z" />
<glyph unicode="u" horiz-adv-x="650" d="M251 -18Q157 -18 106 43T54 232V552H236V227Q236 190 258 167T317 144Q354 144 377 167T400 229V552H582V0H438V232H448Q448 147 427 92T363 9T259 -18H251Z" />
<glyph unicode="v" horiz-adv-x="609" d="M170 0L12 552H198L345 0H170ZM228 0V152H405V0H228ZM292 0L417 552H591L455 0H292Z" />
<glyph unicode="w" horiz-adv-x="946" d="M282 0L380 534H570L682 0H544L428 530H512L406 0H282ZM248 0L247 152H357L358 0H248ZM159 0L14 552H192L326 0H159ZM593 0L594 152H704L703 0H593ZM637 0L758 552H924L792 0H637Z" />
<glyph unicode="x" horiz-adv-x="614" d="M6 0L169 298L165 272L11 552H207L296 371H312L396 552H580L433 267L437 289L610 0H414L306 193H290L190 0H6Z" />
<glyph unicode="y" horiz-adv-x="577" d="M70 -220V-68H197Q220 -68 236 -62T262 -43T277 -5L401 552H573L428 -40Q412 -108 384 -147T306 -203T177 -220H70ZM245 12V152H361V12H245ZM161 12L0 552H182L333 12H161Z" />
<glyph unicode="z" horiz-adv-x="506" d="M30 0V113L275 408V392L249 424L269 414H32V552H480V439L235 144V160L261 128L241 138H486V0H30Z" />
<glyph unicode="{" horiz-adv-x="398" d="M340 -182Q237 -182 177 -136T116 16V159Q116 190 97 204T38 219V379Q78 379 97 393T116 439V578Q116 685 176 730T340 776H366V624H340Q311 624 300 612T288 576V428Q288 367 262 340T182 307V291Q235 287 261 260T288
170V18Q288 -5 299 -17T340 -30H366V-182H340Z" />
<glyph unicode="|" horiz-adv-x="376" d="M112 -200V730L264 731V-199L112 -200Z" />
<glyph unicode="}" horiz-adv-x="398" d="M58 -182Q161 -182 221 -136T282 16V159Q282 190 301 204T360 219V379Q320 379 301 393T282 439V578Q282 685 222 730T58 776H32V624H58Q87 624 98 612T110 576V428Q110 367 136 340T216 307V291Q163 287 137 260T110
170V18Q110 -5 99 -17T58 -30H32V-182H58Z" />
<glyph unicode="~" horiz-adv-x="559" d="M382 208Q346 208 317 221T262 250T216 280T174 293Q155 293 141 278T122 228L20 227Q22 301 45 346T104 413T177 434Q213 434 242 421T297 392T343 362T385 349Q405 349 418 364T437 414H539Q538 339 514 294T455 228T382 208Z" />
<glyph unicode="&#xa0;" horiz-adv-x="204" />
<glyph unicode="&#xa1;" horiz-adv-x="324" d="M69 296V-178H255V296H69ZM56 552V378H268V552H56Z" />
<glyph unicode="&#xa2;" horiz-adv-x="610" d="M315 89Q248 89 196 109T108 166T53 250T34 352V372Q34 429 53 478T108 563T197 619T315 639Q392 639 449 612T540 534T578 414H406Q402 446 378 467T314 489Q283 489 260 474T223 431T210 362Q210 324 221 297T256
254T314 239Q355 239 380 260T410 319H582Q578 250 545 198T453 118T315 89ZM245 0V146H391V0H245ZM245 574V720H391V574H245Z" />
<glyph unicode="&#xa3;" horiz-adv-x="640" d="M104 0V483Q104 611 184 676T400 742Q422 742 453 741T516 737T566 732V586Q547 588 515 590T451 594T400 596Q351 596 323 582T282 541T270 476V0H104ZM40 0V140H508V0H40ZM46 312V432H500V312H46ZM472 0V226H612V0H472Z" />
<glyph unicode="&#xa4;" horiz-adv-x="688" d="M344 131Q270 131 214 163T126 246T94 356V372Q94 431 125 482T213 565T344 597Q418 597 474 566T562 483T594 372V356Q594 298 563 247T475 163T344 131ZM130 56L28 160L141 273L243 169L130 56ZM141 453L28 566L130
670L243 557L141 453ZM344 267Q376 267 397 279T429 313T440 364Q440 395 429 416T396 449T344 461Q314 461 293 450T260 417T248 364Q248 335 259 313T291 279T344 267ZM558 56L445 169L547 273L660 160L558 56ZM547 453L445 557L558 670L660 566L547 453Z" />
<glyph unicode="&#xa5;" horiz-adv-x="680" d="M232 294L16 730H204L346 425L321 434H387L360 425L486 730H664L466 294H232ZM264 0V318H434V0H264ZM62 142V228H632V142H62ZM62 294V380H632V294H62Z" />
<glyph unicode="&#xa6;" horiz-adv-x="376" d="M112 319V730H264V319H112ZM112 -200V211H264V-200H112Z" />
<glyph unicode="&#xa7;" horiz-adv-x="602" d="M287 -102Q169 -102 100 -50T25 99H185Q189 70 216 48T289 26Q327 26 347 40T368 77Q368 96 352 108T308 131T247 151Q211 162 173 176T102 210T50 261T30 336Q30 389 55 428T121 492T202 522L312 465Q268 458 242
443T204 409T192 372Q192 346 210 330T259 301T324 278Q359 267 394 254T460 220T508 168T526 91Q526 1 463 -50T287 -102ZM372 157L287 242Q351 254 381 282T411 345Q411 367 393 382T346 408T281 431Q244 443 206 458T135 494T82 547T62 625Q62 678 91 720T171
787T290 812Q400 812 464 763T528 621H372Q371 651 351 668T289 685Q256 685 240 671T223 633Q223 616 239 603T283 580T344 560Q382 548 422 533T497 497T552 443T573 364Q573 313 552 275T487 207T372 157Z" />
<glyph unicode="&#xa8;" horiz-adv-x="300" d="M92 626Q43 626 22 652T0 718Q0 757 21 783T92 810Q141 810 162 784T184 718Q184 679 163 653T92 626ZM312 626Q263 626 242 652T220 718Q220 757 241 783T312 810Q361 810 382 784T404 718Q404 679 383 653T312 626Z" />
<glyph unicode="&#xa9;" horiz-adv-x="710" d="M356 106Q273 106 213 134T115 208T59 308T40 415V433Q40 487 59 541T116 641T214 713T355 740Q436 740 495 713T593 641T651 542T670 433V415Q670 363 652 309T595 208T498 134T356 106ZM355 160Q434 160 491 196T579
293T610 423Q610 496 579 555T491 650T355 686Q276 686 219 651T131 556T100 423Q100 353 131 293T219 197T355 160ZM356 233Q295 233 254 257T191 323T170 414V427Q170 479 191 520T255 586T356 611Q434 611 483 569T536 459H414Q412 480 399 494T360 509Q326
509 311 487T296 421Q296 394 302 375T322 345T360 335Q386 335 399 349T416 389H539Q535 319 485 276T356 233Z" />
<glyph unicode="&#xaa;" horiz-adv-x="449" d="M280 345V457H253V568Q253 585 247 593T222 602Q213 602 187 602T127 600T64 597V731Q83 733 109 734T163 736T211 737Q271 737 315 719T383 664T408 571V345H280ZM163 335Q102 335 63 368T24 458Q24 504 49 530T118
569T216 581H272V502H218Q202 502 193 494T184 471Q184 459 192 451T218 442Q230 442 237 446T248 461T253 487L289 455Q283 399 253 367T163 335Z" />
<glyph unicode="&#xab;" horiz-adv-x="686" d="M144 39L12 234V284L150 483H358L214 280V242L358 39H144ZM454 39L322 234V284L460 483H668L524 280V242L668 39H454Z" />
<glyph unicode="&#xac;" horiz-adv-x="632" d="M44 250V398H588V64H450V332L532 250H44Z" />
<glyph unicode="&#xad;" horiz-adv-x="431" d="M32 203V365H399V203H32Z" />
<glyph unicode="&#xae;" horiz-adv-x="678" d="M339 174Q269 174 216 198T126 263T72 353T54 451V467Q54 518 72 566T127 655T217 718T339 742Q408 742 461 719T550 655T605 567T624 467V451Q624 402 606 353T552 264T463 199T339 174ZM339 226Q408 226 459 257T539
341T568 458Q568 524 540 576T460 659T339 690Q270 690 219 660T139 577T110 458Q110 394 138 342T218 258T339 226ZM213 306V623H305V306H213ZM396 306L330 429H424L496 306H396ZM256 393V469H344Q369 469 379 479T389 508Q389 526 379 536T344 547H256V623H342Q411
623 446 594T481 508Q481 451 446 422T342 393H256Z" />
<glyph unicode="&#xaf;" horiz-adv-x="300" d="M0 642V768H360V642H0Z" />
<glyph unicode="&#xb0;" horiz-adv-x="442" d="M221 333Q161 333 115 360T44 432T18 532Q18 587 43 631T115 703T221 730Q282 730 327 703T398 632T424 532Q424 477 399 432T328 360T221 333ZM221 459Q254 459 273 480T292 532Q292 563 273 583T221 604Q188 604
169 584T150 532Q150 501 169 480T221 459Z" />
<glyph unicode="&#xb1;" horiz-adv-x="610" d="M60 15V152H550V15H60ZM229 212V672H381V212H229ZM60 373V511H550V373H60Z" />
<glyph unicode="&#xb2;" horiz-adv-x="379" d="M36 420V506Q36 547 58 575T130 623L187 646Q208 655 220 666T232 699Q232 714 221 724T187 735Q165 735 155 725T145 696H30Q30 753 68 793T187 834Q267 834 306 796T345 704V697Q345 653 321 622T231 564L174 541Q160
536 152 531T143 514V492L116 516H342V420H36Z" />
<glyph unicode="&#xb3;" horiz-adv-x="381" d="M187 408Q111 408 68 447T24 542H139Q139 526 152 517T187 507Q210 507 222 518T234 547Q234 564 222 576T187 588Q171 588 159 583T139 571L87 659L192 709L186 720H42V822H330V714L206 653L142 668Q153 670 165
670T188 671Q263 671 306 638T350 548V541Q350 485 307 447T187 408Z" />
<glyph unicode="&#xb4;" horiz-adv-x="300" d="M0 612L90 824H276L160 612H0Z" />
<glyph unicode="&#xb5;" horiz-adv-x="684" d="M54 -200V552H236V227Q236 190 258 167T317 144Q342 144 360 154T389 184T400 229V552H582V189Q582 173 590 165T615 156H662V0H596Q525 0 485 22T429 88T413 197L438 232H448Q448 147 426 92T366 9T277 -18H271Q235
-18 202 1T147 53T126 123L177 140Q177 106 187 71T207 -3T217 -87V-200H54Z" />
<glyph unicode="&#xb6;" horiz-adv-x="643" d="M203 361Q100 361 54 410T8 542V553Q8 635 54 684T203 734H313V361H203ZM278 0V734H395V0H278ZM456 0V734H571V0H456Z" />
<glyph unicode="&#xb7;" horiz-adv-x="276" d="M40 188V386H236V188H40Z" />
<glyph unicode="&#xb8;" horiz-adv-x="300" d="M119 -280Q94 -280 71 -276T34 -267V-157Q48 -162 68 -166T110 -170Q137 -170 150 -164T164 -145Q164 -136 156 -131T126 -126H69V14H179V-87L117 -42H130Q202 -42 242 -69T282 -150Q282 -205 241 -242T119 -280Z" />
<glyph unicode="&#xb9;" horiz-adv-x="264" d="M98 420V744L131 719H24V822H217V420H98Z" />
<glyph unicode="&#xba;" horiz-adv-x="491" d="M246 330Q179 330 131 355T56 425T30 525V545Q30 603 57 647T132 717T246 743Q311 743 359 718T434 648T461 545V525Q461 470 436 426T362 356T246 330ZM246 464Q264 464 276 472T293 497T299 535Q299 557 293 573T276
599T246 609Q229 609 217 600T198 575T192 535Q192 513 198 497T216 473T246 464Z" />
<glyph unicode="&#xbb;" horiz-adv-x="686" d="M542 483L674 288V238L536 39H328L472 242V280L328 483H542ZM232 483L364 288V238L226 39H18L162 242V280L18 483H232Z" />
<glyph unicode="&#xbc;" horiz-adv-x="864" d="M98 255V579L131 554H24V657H217V255H98ZM122 -22L538 680H658L242 -22H122ZM478 64V187L630 434L720 379L595 172L604 158H845V64H478ZM692 0V293H802V0H692Z" />
<glyph unicode="&#xbd;" horiz-adv-x="874" d="M98 255V579L131 554H24V657H217V255H98ZM122 -22L538 680H658L242 -22H122ZM531 0V86Q531 127 553 155T625 203L682 226Q703 235 715 246T727 279Q727 294 716 304T682 315Q660 315 650 305T640 276H525Q525 333
563 373T682 414Q762 414 801 376T840 284V277Q840 233 816 202T726 144L669 121Q655 116 647 111T638 94V72L611 96H837V0H531Z" />
<glyph unicode="&#xbe;" horiz-adv-x="962" d="M187 243Q111 243 68 282T24 377H139Q139 361 152 352T187 342Q210 342 222 353T234 382Q234 399 222 411T187 423Q171 423 159 418T139 406L87 494L192 544L186 555H42V657H330V549L206 488L142 503Q153 505 165
505T188 506Q263 506 306 473T350 383V376Q350 320 307 282T187 243ZM220 -22L636 680H756L340 -22H220ZM576 64V187L728 434L818 379L693 172L702 158H943V64H576ZM790 0V293H900V0H790Z" />
<glyph unicode="&#xbf;" horiz-adv-x="566" d="M397 298V128H296Q248 128 225 103T202 41Q202 16 211 -3T240 -33T286 -44Q313 -44 331 -33T360 -2T370 41H544Q544 -28 513 -82T423 -168T280 -200Q202 -200 146 -172T59 -93T28 26V38Q28 104 59 153T150 229T294
260L215 202L217 298H397ZM409 552V378H205V552H409Z" />
<glyph unicode="&#xc0;" horiz-adv-x="790" d="M8 0L242 730H540L782 0H590L402 600L455 580H323L377 600L194 0H8ZM199 169L255 321H532L588 169H199ZM304 784L183 968H377L480 784H304Z" />
<glyph unicode="&#xc1;" horiz-adv-x="790" d="M8 0L242 730H540L782 0H590L402 600L455 580H323L377 600L194 0H8ZM199 169L255 321H532L588 169H199ZM296 784L420 968H612L470 784H296Z" />
<glyph unicode="&#xc2;" horiz-adv-x="790" d="M8 0L242 730H540L782 0H590L402 600L455 580H323L377 600L194 0H8ZM199 169L255 321H532L588 169H199ZM156 784L286 968H500L632 784H466L400 882H382L318 784H156Z" />
<glyph unicode="&#xc3;" horiz-adv-x="790" d="M8 0L242 730H540L782 0H590L402 600L455 580H323L377 600L194 0H8ZM199 169L255 321H532L588 169H199ZM481 777Q448 777 425 785T384 805T346 824T300 833Q265 833 242 821T204 792L178 916Q196 937 225 952T300
967Q333 967 356 959T397 939T435 920T481 911Q516 911 540 923T578 952L604 828Q586 807 556 792T481 777Z" />
<glyph unicode="&#xc4;" horiz-adv-x="790" d="M8 0L242 730H540L782 0H590L402 600L455 580H323L377 600L194 0H8ZM199 169L255 321H532L588 169H199ZM277 790Q228 790 205 815T181 880Q181 920 204 945T277 970Q327 970 350 945T373 880Q373 840 350 815T277
790ZM505 790Q456 790 433 815T409 880Q409 920 432 945T505 970Q555 970 578 945T601 880Q601 840 578 815T505 790Z" />
<glyph unicode="&#xc5;" horiz-adv-x="790" d="M8 0L242 730H540L782 0H590L402 600L455 580H323L377 600L194 0H8ZM199 169L255 321H532L588 169H199ZM391 760Q331 760 294 791T257 874Q257 926 294 957T391 988Q451 988 488 957T525 874Q525 822 488 791T391
760ZM391 839Q409 839 419 849T429 874Q429 889 419 899T391 909Q373 909 363 899T353 874Q353 859 363 849T391 839Z" />
<glyph unicode="&#xc6;" horiz-adv-x="986" d="M-8 0L280 730H493V580H365L415 600L178 0H-8ZM217 179L273 332H493V179H217ZM472 0V730H649V0H472ZM628 0V152H936V0H628ZM628 295V447H916V295H628ZM628 578V730H930V578H628Z" />
<glyph unicode="&#xc7;" horiz-adv-x="802" d="M415 -20Q316 -20 245 14T128 105T60 228T38 356V378Q38 447 60 513T129 634T246 720T410 752Q510 752 587 715T712 610T767 453H581Q574 491 551 519T492 562T410 578Q367 578 333 563T275 521T239 454T226 366Q226
317 238 278T275 211T335 169T415 154Q485 154 533 188T592 279H778Q769 197 723 129T599 21T415 -20ZM409 -286Q382 -286 358 -282T319 -273V-159Q334 -164 354 -168T400 -172Q429 -172 443 -166T457 -147Q457 -137 448 -133T416 -128H358V14H474V-87L407 -42H420Q493
-42 535 -69T577 -152Q577 -208 534 -247T409 -286Z" />
<glyph unicode="&#xc8;" horiz-adv-x="592" d="M74 0V730H254V0H74ZM234 0V152H542V0H234ZM234 295V447H521V295H234ZM234 578V730H536V578H234ZM217 784L96 968H290L393 784H217Z" />
<glyph unicode="&#xc9;" horiz-adv-x="592" d="M74 0V730H254V0H74ZM234 0V152H542V0H234ZM234 295V447H521V295H234ZM234 578V730H536V578H234ZM209 784L333 968H525L383 784H209Z" />
<glyph unicode="&#xca;" horiz-adv-x="592" d="M74 0V730H254V0H74ZM234 0V152H542V0H234ZM234 295V447H521V295H234ZM234 578V730H536V578H234ZM69 784L199 968H413L545 784H379L313 882H295L231 784H69Z" />
<glyph unicode="&#xcb;" horiz-adv-x="592" d="M74 0V730H254V0H74ZM234 0V152H542V0H234ZM234 295V447H521V295H234ZM234 578V730H536V578H234ZM190 790Q141 790 118 815T94 880Q94 920 117 945T190 970Q240 970 263 945T286 880Q286 840 263 815T190 790ZM418
790Q369 790 346 815T322 880Q322 920 345 945T418 970Q468 970 491 945T514 880Q514 840 491 815T418 790Z" />
<glyph unicode="&#xcc;" horiz-adv-x="338" d="M76 0V730H262V0H76ZM338 784L217 968H411L514 784H338Z" />
<glyph unicode="&#xcd;" horiz-adv-x="338" d="M76 0V730H262V0H76ZM74 784L198 968H390L248 784H74Z" />
<glyph unicode="&#xce;" horiz-adv-x="338" d="M76 0V730H262V0H76ZM190 784L320 968H534L666 784H500L434 882H416L352 784H190Z" />
<glyph unicode="&#xcf;" horiz-adv-x="338" d="M76 0V730H262V0H76ZM311 790Q262 790 239 815T215 880Q215 920 238 945T311 970Q361 970 384 945T407 880Q407 840 384 815T311 790ZM539 790Q490 790 467 815T443 880Q443 920 466 945T539 970Q589 970 612 945T635
880Q635 840 612 815T539 790Z" />
<glyph unicode="&#xd0;" horiz-adv-x="778" d="M240 -4V170H360Q407 170 444 183T508 222T548 284T562 367Q562 415 548 451T508 512T445 549T360 562H240V736H352Q451 736 525 708T650 631T725 516T750 378V356Q750 289 725 225T650 109T526 27T352 -4H240ZM74
-4V736H260V-4H74ZM11 289V441H405V289H11Z" />
<glyph unicode="&#xd1;" horiz-adv-x="885" d="M74 0V730H379L622 148H657L637 130V730H811V0H504L261 582H226L246 600V0H74ZM543 777Q510 777 487 785T446 805T408 824T362 833Q327 833 304 821T266 792L240 916Q258 937 287 952T362 967Q395 967 418 959T459
939T497 920T543 911Q578 911 602 923T640 952L666 828Q648 807 618 792T543 777Z" />
<glyph unicode="&#xd2;" horiz-adv-x="864" d="M432 -20Q332 -20 258 14T135 105T62 228T38 356V378Q38 447 63 513T138 634T261 720T432 752Q528 752 601 720T725 634T800 514T826 378V356Q826 294 802 228T728 106T605 15T432 -20ZM432 154Q480 154 518 170T583
215T624 282T638 366Q638 414 624 453T582 520T517 563T432 578Q384 578 346 563T281 520T240 453T226 366Q226 321 240 283T281 215T346 170T432 154ZM345 784L224 968H418L521 784H345Z" />
<glyph unicode="&#xd3;" horiz-adv-x="864" d="M432 -20Q332 -20 258 14T135 105T62 228T38 356V378Q38 447 63 513T138 634T261 720T432 752Q528 752 601 720T725 634T800 514T826 378V356Q826 294 802 228T728 106T605 15T432 -20ZM432 154Q480 154 518 170T583
215T624 282T638 366Q638 414 624 453T582 520T517 563T432 578Q384 578 346 563T281 520T240 453T226 366Q226 321 240 283T281 215T346 170T432 154ZM337 784L461 968H653L511 784H337Z" />
<glyph unicode="&#xd4;" horiz-adv-x="864" d="M432 -20Q332 -20 258 14T135 105T62 228T38 356V378Q38 447 63 513T138 634T261 720T432 752Q528 752 601 720T725 634T800 514T826 378V356Q826 294 802 228T728 106T605 15T432 -20ZM432 154Q480 154 518 170T583
215T624 282T638 366Q638 414 624 453T582 520T517 563T432 578Q384 578 346 563T281 520T240 453T226 366Q226 321 240 283T281 215T346 170T432 154ZM197 784L327 968H541L673 784H507L441 882H423L359 784H197Z" />
<glyph unicode="&#xd5;" horiz-adv-x="864" d="M432 -20Q332 -20 258 14T135 105T62 228T38 356V378Q38 447 63 513T138 634T261 720T432 752Q528 752 601 720T725 634T800 514T826 378V356Q826 294 802 228T728 106T605 15T432 -20ZM432 154Q480 154 518 170T583
215T624 282T638 366Q638 414 624 453T582 520T517 563T432 578Q384 578 346 563T281 520T240 453T226 366Q226 321 240 283T281 215T346 170T432 154ZM522 777Q489 777 466 785T425 805T387 824T341 833Q306 833 283 821T245 792L219 916Q237 937 266 952T341
967Q374 967 397 959T438 939T476 920T522 911Q557 911 581 923T619 952L645 828Q627 807 597 792T522 777Z" />
<glyph unicode="&#xd6;" horiz-adv-x="864" d="M432 -20Q332 -20 258 14T135 105T62 228T38 356V378Q38 447 63 513T138 634T261 720T432 752Q528 752 601 720T725 634T800 514T826 378V356Q826 294 802 228T728 106T605 15T432 -20ZM432 154Q480 154 518 170T583
215T624 282T638 366Q638 414 624 453T582 520T517 563T432 578Q384 578 346 563T281 520T240 453T226 366Q226 321 240 283T281 215T346 170T432 154ZM318 790Q269 790 246 815T222 880Q222 920 245 945T318 970Q368 970 391 945T414 880Q414 840 391 815T318
790ZM546 790Q497 790 474 815T450 880Q450 920 473 945T546 970Q596 970 619 945T642 880Q642 840 619 815T546 790Z" />
<glyph unicode="&#xd7;" horiz-adv-x="598" d="M455 84L560 189L143 605L38 500L455 84ZM139 84L560 504L459 605L38 185L139 84Z" />
<glyph unicode="&#xd8;" horiz-adv-x="864" d="M78 -70L649 790H785L214 -70H78ZM432 -20Q332 -20 258 14T135 105T62 228T38 356V378Q38 447 63 513T138 634T261 720T432 752Q528 752 601 720T725 634T800 514T826 378V356Q826 294 802 228T728 106T605 15T432
-20ZM432 154Q480 154 518 170T583 215T624 282T638 366Q638 414 624 453T582 520T517 563T432 578Q384 578 346 563T281 520T240 453T226 366Q226 321 240 283T281 215T346 170T432 154Z" />
<glyph unicode="&#xd9;" horiz-adv-x="771" d="M386 -20Q281 -20 209 19T98 129T60 299V730H246V295Q246 252 262 220T310 171T386 154Q431 154 462 171T509 219T525 295V730H711V299Q711 201 674 130T564 19T386 -20ZM299 784L178 968H372L475 784H299Z" />
<glyph unicode="&#xda;" horiz-adv-x="771" d="M386 -20Q281 -20 209 19T98 129T60 299V730H246V295Q246 252 262 220T310 171T386 154Q431 154 462 171T509 219T525 295V730H711V299Q711 201 674 130T564 19T386 -20ZM291 784L415 968H607L465 784H291Z" />
<glyph unicode="&#xdb;" horiz-adv-x="771" d="M386 -20Q281 -20 209 19T98 129T60 299V730H246V295Q246 252 262 220T310 171T386 154Q431 154 462 171T509 219T525 295V730H711V299Q711 201 674 130T564 19T386 -20ZM151 784L281 968H495L627 784H461L395 882H377L313
784H151Z" />
<glyph unicode="&#xdc;" horiz-adv-x="771" d="M386 -20Q281 -20 209 19T98 129T60 299V730H246V295Q246 252 262 220T310 171T386 154Q431 154 462 171T509 219T525 295V730H711V299Q711 201 674 130T564 19T386 -20ZM272 790Q223 790 200 815T176 880Q176 920
199 945T272 970Q322 970 345 945T368 880Q368 840 345 815T272 790ZM500 790Q451 790 428 815T404 880Q404 920 427 945T500 970Q550 970 573 945T596 880Q596 840 573 815T500 790Z" />
<glyph unicode="&#xdd;" horiz-adv-x="658" d="M211 274L4 730H194L333 405L307 414H379L351 405L474 730H654L465 274H211ZM247 0V298H429V0H247ZM239 784L363 968H555L413 784H239Z" />
<glyph unicode="&#xde;" horiz-adv-x="662" d="M240 104V265H352Q385 265 408 277T445 314T458 371Q458 405 445 428T409 465T352 478H240V638H347Q440 638 507 607T610 518T646 379V363Q646 283 610 225T507 135T347 104H240ZM74 0V730H260V0H74Z" />
<glyph unicode="&#xdf;" horiz-adv-x="693" d="M406 -14Q378 -14 352 -11T308 -1V145Q326 140 346 136T386 132Q429 132 456 154T484 222Q484 248 473 270T436 306T370 320H326V452H359Q381 452 396 461T420 486T428 523Q428 547 418 565T390 592T348 602Q324
602 304 591T271 559T258 503V0H76V497Q76 618 149 683T346 748H350Q429 748 487 721T577 646T610 535Q610 488 590 451T525 392T411 370V414Q494 414 550 389T636 318T666 206Q666 129 630 81T534 9T406 -14ZM16 392V524H106V392H16Z" />
<glyph unicode="&#xe0;" horiz-adv-x="600" d="M400 0V162H370V335Q370 373 353 391T295 410Q276 410 239 409T161 406T86 402V554Q110 556 143 558T211 561T277 562Q362 562 421 537T512 462T544 335V0H400ZM225 -14Q167 -14 122 7T52 67T26 162Q26 224 59 262T150
319T283 337H390V243H283Q246 243 226 225T206 175Q206 145 226 127T283 108Q307 108 325 116T356 146T370 204L412 164Q407 107 385 68T323 7T225 -14ZM212 612L98 824H288L376 612H212Z" />
<glyph unicode="&#xe1;" horiz-adv-x="600" d="M400 0V162H370V335Q370 373 353 391T295 410Q276 410 239 409T161 406T86 402V554Q110 556 143 558T211 561T277 562Q362 562 421 537T512 462T544 335V0H400ZM225 -14Q167 -14 122 7T52 67T26 162Q26 224 59 262T150
319T283 337H390V243H283Q246 243 226 225T206 175Q206 145 226 127T283 108Q307 108 325 116T356 146T370 204L412 164Q407 107 385 68T323 7T225 -14ZM205 612L295 824H481L365 612H205Z" />
<glyph unicode="&#xe2;" horiz-adv-x="600" d="M400 0V162H370V335Q370 373 353 391T295 410Q276 410 239 409T161 406T86 402V554Q110 556 143 558T211 561T277 562Q362 562 421 537T512 462T544 335V0H400ZM225 -14Q167 -14 122 7T52 67T26 162Q26 224 59 262T150
319T283 337H390V243H283Q246 243 226 225T206 175Q206 145 226 127T283 108Q307 108 325 116T356 146T370 204L412 164Q407 107 385 68T323 7T225 -14ZM82 612L183 824H407L510 612H356L300 740H286L232 612H82Z" />
<glyph unicode="&#xe3;" horiz-adv-x="600" d="M400 0V162H370V335Q370 373 353 391T295 410Q276 410 239 409T161 406T86 402V554Q110 556 143 558T211 561T277 562Q362 562 421 537T512 462T544 335V0H400ZM225 -14Q167 -14 122 7T52 67T26 162Q26 224 59 262T150
319T283 337H390V243H283Q246 243 226 225T206 175Q206 145 226 127T283 108Q307 108 325 116T356 146T370 204L412 164Q407 107 385 68T323 7T225 -14ZM376 618Q345 618 324 626T287 644T253 662T211 670Q183 670 162 660T126 635L100 759Q118 777 144 790T211
804Q243 804 263 796T300 778T334 760T376 752Q405 752 426 762T462 787L488 663Q470 645 443 632T376 618Z" />
<glyph unicode="&#xe4;" horiz-adv-x="600" d="M400 0V162H370V335Q370 373 353 391T295 410Q276 410 239 409T161 406T86 402V554Q110 556 143 558T211 561T277 562Q362 562 421 537T512 462T544 335V0H400ZM225 -14Q167 -14 122 7T52 67T26 162Q26 224 59 262T150
319T283 337H390V243H283Q246 243 226 225T206 175Q206 145 226 127T283 108Q307 108 325 116T356 146T370 204L412 164Q407 107 385 68T323 7T225 -14ZM184 626Q135 626 114 652T92 718Q92 757 113 783T184 810Q233 810 254 784T276 718Q276 679 255 653T184 626ZM404
626Q355 626 334 652T312 718Q312 757 333 783T404 810Q453 810 474 784T496 718Q496 679 475 653T404 626Z" />
<glyph unicode="&#xe5;" horiz-adv-x="600" d="M400 0V162H370V335Q370 373 353 391T295 410Q276 410 239 409T161 406T86 402V554Q110 556 143 558T211 561T277 562Q362 562 421 537T512 462T544 335V0H400ZM225 -14Q167 -14 122 7T52 67T26 162Q26 224 59 262T150
319T283 337H390V243H283Q246 243 226 225T206 175Q206 145 226 127T283 108Q307 108 325 116T356 146T370 204L412 164Q407 107 385 68T323 7T225 -14ZM294 601Q235 601 198 636T161 726Q161 781 198 816T294 851Q353 851 390 816T427 726Q427 671 390 636T294
601ZM294 686Q313 686 323 697T334 726Q334 743 324 754T294 766Q275 766 265 755T254 726Q254 709 264 698T294 686Z" />
<glyph unicode="&#xe6;" horiz-adv-x="958" d="M657 -20Q602 -20 560 -5T486 37T435 96T404 165H456Q451 108 421 68T341 6T232 -15Q171 -15 125 6T52 66T26 161Q26 223 59 261T150 318T283 336H390V242H283Q246 242 226 224T206 174Q206 144 226 126T283 107Q307
107 326 116T358 148T370 208V334Q370 372 353 390T295 409Q276 409 239 408T161 405T86 401V553Q110 555 143 557T210 560T275 561Q358 561 410 535T488 461T516 342H404Q415 402 444 454T524 538T653 570Q741 570 802 530T895 424T928 282V227H514V321H823L760
280Q760 327 748 359T711 407T649 424Q613 424 587 407T546 357T532 273Q532 228 544 195T584 144T655 126Q692 126 717 139T752 174H918Q906 118 871 74T781 5T657 -20Z" />
<glyph unicode="&#xe7;" horiz-adv-x="613" d="M318 -20Q246 -20 193 3T105 67T52 158T34 264V284Q34 342 52 394T107 486T196 549T318 572Q394 572 452 542T544 460T583 339H405Q402 372 381 395T318 418Q283 418 261 400T227 350T216 274Q216 233 225 201T257
152T318 134Q346 134 365 144T395 172T409 216H587Q583 146 548 93T453 10T318 -20ZM315 -280Q290 -280 267 -276T230 -267V-157Q244 -162 264 -166T306 -170Q333 -170 346 -164T360 -145Q360 -136 352 -131T322 -126H265V14H375V-87L313 -42H326Q398 -42 438 -69T478
-150Q478 -205 437 -242T315 -280Z" />
<glyph unicode="&#xe8;" horiz-adv-x="628" d="M325 -20Q255 -20 201 4T110 69T54 161T34 266V286Q34 342 53 393T109 485T199 548T319 572Q408 572 470 532T565 427T598 284V226H110V324H493L430 280Q430 327 418 359T381 409T319 426Q283 426 257 410T216 360T202
275Q202 229 215 196T255 144T325 126Q363 126 387 139T422 174H588Q576 118 541 74T451 5T325 -20ZM237 612L123 824H313L401 612H237Z" />
<glyph unicode="&#xe9;" horiz-adv-x="628" d="M325 -20Q255 -20 201 4T110 69T54 161T34 266V286Q34 342 53 393T109 485T199 548T319 572Q408 572 470 532T565 427T598 284V226H110V324H493L430 280Q430 327 418 359T381 409T319 426Q283 426 257 410T216 360T202
275Q202 229 215 196T255 144T325 126Q363 126 387 139T422 174H588Q576 118 541 74T451 5T325 -20ZM230 612L320 824H506L390 612H230Z" />
<glyph unicode="&#xea;" horiz-adv-x="628" d="M325 -20Q255 -20 201 4T110 69T54 161T34 266V286Q34 342 53 393T109 485T199 548T319 572Q408 572 470 532T565 427T598 284V226H110V324H493L430 280Q430 327 418 359T381 409T319 426Q283 426 257 410T216 360T202
275Q202 229 215 196T255 144T325 126Q363 126 387 139T422 174H588Q576 118 541 74T451 5T325 -20ZM107 612L208 824H432L535 612H381L325 740H311L257 612H107Z" />
<glyph unicode="&#xeb;" horiz-adv-x="628" d="M325 -20Q255 -20 201 4T110 69T54 161T34 266V286Q34 342 53 393T109 485T199 548T319 572Q408 572 470 532T565 427T598 284V226H110V324H493L430 280Q430 327 418 359T381 409T319 426Q283 426 257 410T216 360T202
275Q202 229 215 196T255 144T325 126Q363 126 387 139T422 174H588Q576 118 541 74T451 5T325 -20ZM209 626Q160 626 139 652T117 718Q117 757 138 783T209 810Q258 810 279 784T301 718Q301 679 280 653T209 626ZM429 626Q380 626 359 652T337 718Q337 757 358
783T429 810Q478 810 499 784T521 718Q521 679 500 653T429 626Z" />
<glyph unicode="&#xec;" horiz-adv-x="342" d="M92 0V552H274V0H92ZM22 420V552H274V420H22ZM333 612L219 824H409L497 612H333Z" />
<glyph unicode="&#xed;" horiz-adv-x="342" d="M92 0V552H274V0H92ZM22 420V552H274V420H22ZM70 612L160 824H346L230 612H70Z" />
<glyph unicode="&#xee;" horiz-adv-x="342" d="M92 0V552H274V0H92ZM22 420V552H274V420H22ZM203 612L304 824H528L631 612H477L421 740H407L353 612H203Z" />
<glyph unicode="&#xef;" horiz-adv-x="342" d="M92 0V552H274V0H92ZM22 420V552H274V420H22ZM305 626Q256 626 235 652T213 718Q213 757 234 783T305 810Q354 810 375 784T397 718Q397 679 376 653T305 626ZM525 626Q476 626 455 652T433 718Q433 757 454 783T525
810Q574 810 595 784T617 718Q617 679 596 653T525 626Z" />
<glyph unicode="&#xf0;" horiz-adv-x="682" d="M342 -18Q271 -18 214 2T117 57T56 141T34 244V260Q34 338 69 393T164 477T295 506Q349 506 396 489T475 440T514 359H502Q501 455 478 510T427 586Q407 601 374 608T300 616Q267 616 233 613T165 604V740Q199 746
233 749T299 752Q421 752 497 706T610 571T646 358V332Q646 221 610 143T507 23T342 -18ZM343 134Q382 134 410 147T454 187T470 252Q470 291 454 318T410 360T343 374Q306 374 277 360T232 319T216 252Q216 214 231 188T275 148T343 134ZM388 504L325 568L554
797L617 733L388 504Z" />
<glyph unicode="&#xf1;" horiz-adv-x="656" d="M66 0V552H210V315H202Q202 401 224 457T289 542T395 570H403Q497 570 548 508T600 316V0H418V321Q418 359 396 383T334 408Q295 408 272 384T248 319V0H66ZM417 618Q386 618 365 626T328 644T294 662T252 670Q224
670 203 660T167 635L141 759Q159 777 185 790T252 804Q284 804 304 796T341 778T375 760T417 752Q446 752 467 762T503 787L529 663Q511 645 484 632T417 618Z" />
<glyph unicode="&#xf2;" horiz-adv-x="682" d="M341 -20Q268 -20 211 2T115 63T55 153T34 262V286Q34 346 55 398T117 489T214 550T341 572Q412 572 468 550T565 489T626 398T648 286V262Q648 204 628 153T568 63T471 2T341 -20ZM341 132Q383 132 410 150T452
200T466 274Q466 317 452 349T409 401T341 420Q301 420 273 401T231 350T216 274Q216 233 230 201T272 150T341 132ZM259 612L145 824H335L423 612H259Z" />
<glyph unicode="&#xf3;" horiz-adv-x="682" d="M341 -20Q268 -20 211 2T115 63T55 153T34 262V286Q34 346 55 398T117 489T214 550T341 572Q412 572 468 550T565 489T626 398T648 286V262Q648 204 628 153T568 63T471 2T341 -20ZM341 132Q383 132 410 150T452
200T466 274Q466 317 452 349T409 401T341 420Q301 420 273 401T231 350T216 274Q216 233 230 201T272 150T341 132ZM252 612L342 824H528L412 612H252Z" />
<glyph unicode="&#xf4;" horiz-adv-x="682" d="M341 -20Q268 -20 211 2T115 63T55 153T34 262V286Q34 346 55 398T117 489T214 550T341 572Q412 572 468 550T565 489T626 398T648 286V262Q648 204 628 153T568 63T471 2T341 -20ZM341 132Q383 132 410 150T452
200T466 274Q466 317 452 349T409 401T341 420Q301 420 273 401T231 350T216 274Q216 233 230 201T272 150T341 132ZM129 612L230 824H454L557 612H403L347 740H333L279 612H129Z" />
<glyph unicode="&#xf5;" horiz-adv-x="682" d="M341 -20Q268 -20 211 2T115 63T55 153T34 262V286Q34 346 55 398T117 489T214 550T341 572Q412 572 468 550T565 489T626 398T648 286V262Q648 204 628 153T568 63T471 2T341 -20ZM341 132Q383 132 410 150T452
200T466 274Q466 317 452 349T409 401T341 420Q301 420 273 401T231 350T216 274Q216 233 230 201T272 150T341 132ZM423 618Q392 618 371 626T334 644T300 662T258 670Q230 670 209 660T173 635L147 759Q165 777 191 790T258 804Q290 804 310 796T347 778T381
760T423 752Q452 752 473 762T509 787L535 663Q517 645 490 632T423 618Z" />
<glyph unicode="&#xf6;" horiz-adv-x="682" d="M341 -20Q268 -20 211 2T115 63T55 153T34 262V286Q34 346 55 398T117 489T214 550T341 572Q412 572 468 550T565 489T626 398T648 286V262Q648 204 628 153T568 63T471 2T341 -20ZM341 132Q383 132 410 150T452
200T466 274Q466 317 452 349T409 401T341 420Q301 420 273 401T231 350T216 274Q216 233 230 201T272 150T341 132ZM231 626Q182 626 161 652T139 718Q139 757 160 783T231 810Q280 810 301 784T323 718Q323 679 302 653T231 626ZM451 626Q402 626 381 652T359
718Q359 757 380 783T451 810Q500 810 521 784T543 718Q543 679 522 653T451 626Z" />
<glyph unicode="&#xf7;" horiz-adv-x="598" d="M44 270V418H554V270H44ZM217 50V208H381V50H217ZM217 480V638H381V480H217Z" />
<glyph unicode="&#xf8;" horiz-adv-x="682" d="M68 -66L510 600H614L172 -66H68ZM341 -20Q268 -20 211 2T115 63T55 153T34 262V286Q34 346 55 398T117 489T214 550T341 572Q412 572 468 550T565 489T626 398T648 286V262Q648 204 628 153T568 63T471 2T341 -20ZM341
132Q383 132 410 150T452 200T466 274Q466 317 452 349T409 401T341 420Q301 420 273 401T231 350T216 274Q216 233 230 201T272 150T341 132Z" />
<glyph unicode="&#xf9;" horiz-adv-x="650" d="M251 -18Q157 -18 106 43T54 232V552H236V227Q236 190 258 167T317 144Q354 144 377 167T400 229V552H582V0H438V232H448Q448 147 427 92T363 9T259 -18H251ZM236 612L122 824H312L400 612H236Z" />
<glyph unicode="&#xfa;" horiz-adv-x="650" d="M251 -18Q157 -18 106 43T54 232V552H236V227Q236 190 258 167T317 144Q354 144 377 167T400 229V552H582V0H438V232H448Q448 147 427 92T363 9T259 -18H251ZM229 612L319 824H505L389 612H229Z" />
<glyph unicode="&#xfb;" horiz-adv-x="650" d="M251 -18Q157 -18 106 43T54 232V552H236V227Q236 190 258 167T317 144Q354 144 377 167T400 229V552H582V0H438V232H448Q448 147 427 92T363 9T259 -18H251ZM106 612L207 824H431L534 612H380L324 740H310L256 612H106Z" />
<glyph unicode="&#xfc;" horiz-adv-x="650" d="M251 -18Q157 -18 106 43T54 232V552H236V227Q236 190 258 167T317 144Q354 144 377 167T400 229V552H582V0H438V232H448Q448 147 427 92T363 9T259 -18H251ZM208 626Q159 626 138 652T116 718Q116 757 137 783T208
810Q257 810 278 784T300 718Q300 679 279 653T208 626ZM428 626Q379 626 358 652T336 718Q336 757 357 783T428 810Q477 810 498 784T520 718Q520 679 499 653T428 626Z" />
<glyph unicode="&#xfd;" horiz-adv-x="577" d="M70 -220V-68H197Q220 -68 236 -62T262 -43T277 -5L401 552H573L428 -40Q412 -108 384 -147T306 -203T177 -220H70ZM245 12V152H361V12H245ZM161 12L0 552H182L333 12H161ZM203 612L293 824H479L363 612H203Z" />
<glyph unicode="&#xfe;" horiz-adv-x="708" d="M66 -200V730H248V342H224Q227 408 253 458T326 536T439 564Q494 564 537 544T611 488T658 400T674 287V263Q674 202 658 151T610 62T532 3T425 -18Q361 -18 312 7T235 83T204 212L248 158V-200H66ZM370 132Q406
132 433 150T476 200T492 275Q492 318 477 349T434 397T370 414Q337 414 309 400T262 357T244 287V253Q244 214 263 187T311 146T370 132Z" />
<glyph unicode="&#xff;" horiz-adv-x="577" d="M70 -220V-68H197Q220 -68 236 -62T262 -43T277 -5L401 552H573L428 -40Q412 -108 384 -147T306 -203T177 -220H70ZM245 12V152H361V12H245ZM161 12L0 552H182L333 12H161ZM182 626Q133 626 112 652T90 718Q90 757
111 783T182 810Q231 810 252 784T274 718Q274 679 253 653T182 626ZM402 626Q353 626 332 652T310 718Q310 757 331 783T402 810Q451 810 472 784T494 718Q494 679 473 653T402 626Z" />
<glyph unicode="&#x2013;" horiz-adv-x="530" d="M18 216V352H512V216H18Z" />
<glyph unicode="&#x2014;" horiz-adv-x="918" d="M18 216V352H900V216H18Z" />
<glyph unicode="&#x2018;" horiz-adv-x="278" d="M242 742V638H204Q178 638 163 631T140 605T132 549V476L99 544Q106 550 120 554T151 559Q189 559 214 536T240 471Q240 432 216 404T143 376Q112 376 87 390T46 438T30 529V542Q30 612 51 656T113 721T215 742H242Z" />
<glyph unicode="&#x2019;" horiz-adv-x="278" d="M36 376V480H74Q100 480 115 487T138 513T146 569V642L179 574Q172 568 158 564T127 559Q89 559 64 582T38 647Q38 686 62 714T135 742Q166 742 191 728T232 680T248 589V576Q248 506 227 462T165 397T63 376H36Z" />
<glyph unicode="&#x201a;" horiz-adv-x="278" d="M36 -204V-100H74Q100 -100 115 -93T138 -67T146 -11V62L179 -6Q172 -12 158 -16T127 -21Q89 -21 64 2T38 67Q38 106 62 134T135 162Q166 162 191 148T232 100T248 9V-4Q248 -74 227 -118T165 -183T63 -204H36Z" />
<glyph unicode="&#x201c;" horiz-adv-x="526" d="M490 742V638H452Q426 638 411 631T388 605T380 549V476L347 544Q354 550 368 554T399 559Q437 559 462 536T488 471Q488 432 464 404T391 376Q360 376 335 390T294 438T278 529V542Q278 612 299 656T361 721T463
742H490ZM242 742V638H204Q178 638 163 631T140 605T132 549V476L99 544Q106 550 120 554T151 559Q189 559 214 536T240 471Q240 432 216 404T143 376Q112 376 87 390T46 438T30 529V542Q30 612 51 656T113 721T215 742H242Z" />
<glyph unicode="&#x201d;" horiz-adv-x="526" d="M36 376V480H74Q100 480 115 487T138 513T146 569V642L179 574Q172 568 158 564T127 559Q89 559 64 582T38 647Q38 686 62 714T135 742Q166 742 191 728T232 680T248 589V576Q248 506 227 462T165 397T63 376H36ZM284
376V480H322Q348 480 363 487T386 513T394 569V642L427 574Q420 568 406 564T375 559Q337 559 312 582T286 647Q286 686 310 714T383 742Q414 742 439 728T480 680T496 589V576Q496 506 475 462T413 397T311 376H284Z" />
<glyph unicode="&#x201e;" horiz-adv-x="526" d="M36 -204V-100H74Q100 -100 115 -93T138 -67T146 -11V62L179 -6Q172 -12 158 -16T127 -21Q89 -21 64 2T38 67Q38 106 62 134T135 162Q166 162 191 148T232 100T248 9V-4Q248 -74 227 -118T165 -183T63 -204H36ZM284
-204V-100H322Q348 -100 363 -93T386 -67T394 -11V62L427 -6Q420 -12 406 -16T375 -21Q337 -21 312 2T286 67Q286 106 310 134T383 162Q414 162 439 148T480 100T496 9V-4Q496 -74 475 -118T413 -183T311 -204H284Z" />
<glyph unicode="&#x2022;" horiz-adv-x="436" d="M78 144V434H358V144H78Z" />
<glyph unicode="&#x2039;" horiz-adv-x="376" d="M144 39L12 234V284L150 483H358L214 280V242L358 39H144Z" />
<glyph unicode="&#x203a;" horiz-adv-x="376" d="M232 483L364 288V238L226 39H18L162 242V280L18 483H232Z" />
</font>
</defs>
</svg>
